<?xml version="1.0" encoding="UTF-8"?>
<!DOCTYPE svg PUBLIC "-//W3C//DTD SVG 1.1//EN" "http://www.w3.org/Graphics/SVG/1.1/DTD/svg11.dtd">
<!-- Creator: CorelDRAW -->
<svg xmlns="http://www.w3.org/2000/svg" xml:space="preserve" width="1.70666in" height="1.70666in" version="1.1" style="shape-rendering:geometricPrecision; text-rendering:geometricPrecision; image-rendering:optimizeQuality; fill-rule:evenodd; clip-rule:evenodd"
viewBox="0 0 1706.66 1706.66"
 xmlns:xlink="http://www.w3.org/1999/xlink"
 xmlns:xodm="http://www.corel.com/coreldraw/odm/2003">
 <defs>
  <style type="text/css">
   <![CDATA[
    .fil1 {fill:#B7D7FE}
    .fil0 {fill:#D7D7D7}
    .fil2 {fill:#FA3C48}
   ]]>
  </style>
 </defs>
 <g id="Layer_x0020_1">
  <metadata id="CorelCorpID_0Corel-Layer"/>
  <path class="fil0" d="M486.94 1018.26c-189.03,0 -342.82,-153.79 -342.82,-342.82 0,-189.04 153.79,-342.83 342.82,-342.83 189.04,0 342.81,153.79 342.81,342.83 0,189.03 -153.78,342.82 -342.81,342.82z"/>
  <path class="fil1" d="M1416.07 299.5c-70.98,0 -128.73,-57.75 -128.73,-128.73 0,-98.37 105.91,-159.46 190.61,-112.91 23.04,12.67 3.85,47.7 -19.26,35.04 -58.52,-32.06 -131.37,10.15 -131.37,77.87 0,67.85 73.02,109.91 131.38,77.88 23.06,-12.65 42.31,22.42 19.23,35.07 -18.86,10.31 -40.26,15.78 -61.86,15.78z"/>
  <path class="fil1" d="M1222.24 121.94c-79.99,0 -79.98,-121.54 0,-121.54 79.98,0 80,121.54 0,121.54z"/>
  <path class="fil0" d="M1087.19 1706.26c-177.79,0 -322.43,-144.65 -322.43,-322.44 0,-119 66.95,-229.5 171.6,-285.05l0 -639.25c0,-83.17 67.66,-150.81 150.81,-150.81 83.17,0 150.83,67.66 150.83,150.81l0 639.25c104.65,55.54 171.6,166.06 171.6,285.05 0.02,177.81 -144.64,322.44 -322.41,322.44z"/>
  <path class="fil2" d="M1087.19 1576.94c-106.48,0 -193.12,-86.64 -193.12,-193.11 0,-106.49 86.64,-193.13 193.12,-193.13 106.47,0 193.11,86.64 193.11,193.13 0,106.48 -86.64,193.11 -193.11,193.11z"/>
  <path class="fil2" d="M1087.19 1230.7c-11.04,0 -19.99,-8.97 -19.99,-19.99l0 -693.42c0,-26.31 39.98,-26.31 39.98,0l0 693.41c0,11.04 -8.95,20.01 -19.99,20.01z"/>
  <path class="fil2" d="M1542.55 491.24l-225.98 0c-26.32,0 -26.31,-39.98 0,-39.98l225.98 0c26.32,0 26.32,39.98 0,39.98z"/>
  <path class="fil2" d="M1429.57 605.99l-113 0c-26.32,0 -26.31,-39.98 0,-39.98l113 0c26.32,0 26.32,39.98 0,39.98z"/>
  <path class="fil2" d="M1542.55 714.08l-225.98 0c-26.32,0 -26.31,-39.98 0,-39.98l225.98 0c26.32,0 26.32,39.98 0,39.98z"/>
  <path class="fil2" d="M1429.57 822.17l-113 0c-26.32,0 -26.31,-39.98 0,-39.98l113 0c26.32,0 26.32,39.98 0,39.98z"/>
  <path class="fil2" d="M1542.55 930.26l-225.98 0c-26.32,0 -26.31,-39.98 0,-39.98l225.98 0c26.31,0 26.31,39.98 0,39.98z"/>
  <path class="fil2" d="M1429.57 1038.34l-113 0c-26.32,0 -26.31,-39.98 0,-39.98l113 0c26.31,0 26.31,39.98 0,39.98z"/>
  <path class="fil2" d="M556.12 912.14l-138.37 0c-11.04,0 -19.99,-8.96 -19.99,-19.99l0 -223.94 -100.35 0c-17.73,0 -26.73,-21.56 -14.13,-34.12l189.54 -189.52c7.82,-7.82 20.46,-7.82 28.27,0l187.67 187.67c16.47,14.32 5.26,35.97 -12.28,35.97l-100.36 0 0 223.94c0,11.03 -8.94,19.99 -19.99,19.99z"/>
 </g>
</svg>
